<?xml version="1.0" encoding="utf-8"?>
<!-- Generator: Adobe Illustrator 15.1.0, SVG Export Plug-In . SVG Version: 6.00 Build 0)  -->
<!DOCTYPE svg PUBLIC "-//W3C//DTD SVG 1.1//EN" "http://www.w3.org/Graphics/SVG/1.1/DTD/svg11.dtd">
<svg version="1.1" id="Ebene_1" xmlns="http://www.w3.org/2000/svg" xmlns:xlink="http://www.w3.org/1999/xlink" x="0px" y="0px"
	 width="400px" height="168px" viewBox="0 0 400 168" enable-background="new 0 0 400 168" xml:space="preserve">
<rect fill="none" width="400" height="168.476"/>
<rect fill="none" width="400" height="168.476"/>
<rect fill="none" width="400" height="168"/>
<path fill="#FFFFFF" d="M106.129,100.128c-1.247,0.369-2.242,0.506-3.547,0.506c-10.688,0-26.388-37.358-26.388-49.793
	c0-4.576,1.09-6.104,2.621-7.415c-13.085,1.527-28.792,6.33-33.812,12.434c-1.085,1.529-1.737,3.926-1.737,6.98
	c0,19.41,20.718,63.455,35.325,63.455C85.353,126.295,96.751,115.181,106.129,100.128"/>
<path fill="#FFFFFF" d="M99.306,42.121c13.527,0,27.049,2.182,27.049,9.812c0,15.482-9.812,34.246-14.832,34.246
	c-8.942,0-20.065-24.867-20.065-37.302C91.458,43.211,93.639,42.121,99.306,42.121"/>
<polygon fill="#FFFFFF" points="168.088,125.682 154.554,70.323 154.554,125.682 147.396,125.682 147.396,63.783 159.951,63.783 
	173.57,119.135 173.57,63.783 180.728,63.783 180.728,125.682 "/>
<polygon fill="#FFFFFF" points="194.884,125.682 194.884,63.783 223.883,63.783 223.883,70.238 202.582,70.238 202.582,90.49 
	221.67,90.49 221.67,96.938 202.582,96.938 202.582,119.22 223.883,119.22 223.883,125.682 "/>
<path fill="#FFFFFF" d="M252.535,126.293c-14.589,0-18.479-10.61-18.479-32.268c0-20.783,3.891-30.867,18.479-30.867
	c14.597,0,18.489,10.084,18.489,30.867C271.024,115.683,267.131,126.293,252.535,126.293 M252.535,69.613
	c-7.955,0-10.612,5.396-10.612,24.853c0,19.003,2.657,25.38,10.612,25.38c7.965,0,10.62-6.377,10.62-25.38
	C263.155,75.01,260.5,69.613,252.535,69.613"/>
<path fill="#FFFFFF" d="M292.074,126.292c-2.843,0-7.259-0.525-10.269-1.32v-6.462c2.741,0.71,6.376,1.335,11.148,1.335
	c6.106,0,8.747-3.536,8.747-10.879c0-8.577-2.386-11.048-7.157-12.028c-9.812-2.03-13.534-6.277-13.534-16.708
	c0-12.647,7.258-17.071,17.425-17.071c2.912,0,6.803,0.625,9.374,1.328v6.455c-3.011-0.703-7.157-1.328-10.254-1.328
	c-4.431,0-8.663,2.656-8.663,9.643c0,7.158,1.237,9.188,6.802,10.34c8.493,1.774,13.888,5.481,13.888,18.49
	C309.581,122.756,302.596,126.292,292.074,126.292"/>
</svg>
