<?xml version="1.0" encoding="utf-8"?>
<!-- Generator: Adobe Illustrator 15.1.0, SVG Export Plug-In . SVG Version: 6.00 Build 0)  -->
<!DOCTYPE svg PUBLIC "-//W3C//DTD SVG 1.1//EN" "http://www.w3.org/Graphics/SVG/1.1/DTD/svg11.dtd">
<svg version="1.1" id="Ebene_1" xmlns="http://www.w3.org/2000/svg" xmlns:xlink="http://www.w3.org/1999/xlink" x="0px" y="0px"
	 width="400px" height="168px" viewBox="0 0 400 168" enable-background="new 0 0 400 168" xml:space="preserve">
<rect fill="none" width="400" height="168.432"/>
<rect fill="none" width="400" height="168.432"/>
<rect x="0.054" fill="none" width="399.945" height="168.432"/>
<path d="M106.157,100.146c-1.254,0.37-2.25,0.506-3.555,0.506c-10.686,0-26.394-37.365-26.394-49.802
	c0-4.577,1.091-6.106,2.622-7.416c-13.087,1.526-28.797,6.331-33.818,12.436c-1.085,1.53-1.737,3.927-1.737,6.982
	c0,19.413,20.722,63.467,35.332,63.467C85.369,126.319,96.77,115.203,106.157,100.146"/>
<path d="M99.333,42.13c13.522,0,27.047,2.181,27.047,9.813c0,15.486-9.814,34.253-14.834,34.253
	c-8.944,0-20.069-24.872-20.069-37.31C91.476,43.219,93.664,42.13,99.333,42.13"/>
<polygon points="155.116,70.252 155.116,91.388 174.22,91.388 174.22,97.836 155.116,97.836 155.116,125.706 147.423,125.706 
	147.423,63.795 176.429,63.795 176.429,70.252 "/>
<polygon points="187.05,125.706 187.05,63.796 194.744,63.796 194.744,118.987 214.464,118.987 214.464,125.706 "/>
<path d="M237.379,126.317c-14.603,0-18.494-10.613-18.494-32.273c0-20.788,3.892-30.874,18.494-30.874
	c14.589,0,18.482,10.086,18.482,30.874C255.862,115.704,251.968,126.317,237.379,126.317 M237.379,69.631
	c-7.968,0-10.611,5.394-10.611,24.854c0,19.021,2.644,25.385,10.611,25.385c7.955,0,10.611-6.364,10.611-25.385
	C247.991,75.024,245.334,69.631,237.379,69.631"/>
<polygon points="304.515,125.706 292.484,125.706 286.561,98.816 280.098,125.706 268.607,125.706 265.593,63.796 272.397,63.796 
	275.055,120.833 283.023,89.883 290.267,89.883 298.321,120.833 301.063,63.796 307.511,63.796 "/>
</svg>
